Coordinates
version=1
nRows=8
nColumns=40
inDegrees=yes

Units are S.I. units (second, meters, Newtons, ...)
Angles are in degrees.

endheader
time	pelvis_tilt	pelvis_list	pelvis_rotation	pelvis_tx	pelvis_ty	pelvis_tz	hip_flexion_r	hip_adduction_r	hip_rotation_r	knee_angle_r	knee_angle_r_beta	ankle_angle_r	subtalar_angle_r	mtp_angle_r	hip_flexion_l	hip_adduction_l	hip_rotation_l	knee_angle_l	knee_angle_l_beta	ankle_angle_l	subtalar_angle_l	mtp_angle_l	lumbar_extension	lumbar_bending	lumbar_rotation	arm_flex_r	arm_add_r	arm_rot_r	elbow_flex_r	pro_sup_r	wrist_flex_r	wrist_dev_r	arm_flex_l	arm_add_l	arm_rot_l	elbow_flex_l	pro_sup_l	wrist_flex_l	wrist_dev_l
     24.77000000	     -5.22073458	     -6.03633977	     -4.53151532	      1.01933042	      0.93525478	      0.38508400	     37.63136189	     -5.31555720	     -7.27239842	     58.77516434	     58.77516434	     -1.27774399	     -9.97255553	     -2.09386611	     11.59486843	     -6.56254159	    -11.55664631	     20.23239495	     20.23239495	     15.00709968	     -9.52543625	      0.76432183	    -13.32147523	      6.31240061	      3.21145930	      4.15227256	    -12.93263789	      0.82482356	     38.94737051	     46.41273591	      0.00000000	      0.00000000	     12.56305805	    -18.80517583	    -11.54494958	     77.15619885	     48.18313853	      0.00000000	      0.00000000
     24.78171429	     -5.29322927	     -5.97651251	     -4.69591586	      1.01778183	      0.93521831	      0.38501770	     37.95598629	     -5.07700944	     -7.51223385	     55.72584613	     55.72584613	     -1.20011477	     -8.68832519	     -2.10101562	     10.88563637	     -6.46708784	    -11.93097263	     19.70508528	     19.70508528	     15.16161835	     -9.04682650	      0.35115341	    -13.35260439	      6.26558982	      2.94221442	      3.05753121	    -12.93954286	      1.52836238	     35.21971352	     46.46543929	      0.00000000	      0.00000000	     13.59902848	    -19.36199512	    -12.42410611	     79.50197688	     48.28698701	      0.00000000	      0.00000000
     24.79342857	     -5.33629336	     -5.89412135	     -4.80848357	      1.01636595	      0.93509060	      0.38495673	     38.06313147	     -4.89507751	     -7.83046214	     52.35042367	     52.35042367	     -1.12316071	     -7.22545028	     -1.92104648	     10.14382997	     -6.32108879	    -12.22816835	     19.17438785	     19.17438785	     15.38280587	     -8.63577911	      0.18508990	    -13.39230918	      6.22083628	      3.03144058	      1.08077749	    -13.16960362	      1.75942370	     33.57371673	     46.49300471	      0.00000000	      0.00000000	     15.08535712	    -19.76175857	    -12.74350029	     81.14803519	     48.34539283	      0.00000000	      0.00000000
     24.80514286	     -5.40351991	     -5.79662678	     -4.85891931	      1.01507686	      0.93479818	      0.38495212	     38.01234121	     -4.71245526	     -8.18252675	     48.67052393	     48.67052393	     -1.12987276	     -5.85352232	     -1.66157279	      9.44347676	     -6.16991477	    -12.53675010	     18.66690405	     18.66690405	     15.59976953	     -8.15577052	     -0.07921843	    -13.35819701	      6.14670024	      2.95806025	     -0.78328599	    -13.35407411	      1.94485060	     31.93364104	     46.52635620	      0.00000000	      0.00000000	     16.39567055	    -20.22699018	    -12.87099409	     82.76662473	     48.39018180	      0.00000000	      0.00000000
     24.81685714	     -5.47781511	     -5.57705967	     -4.89932268	      1.01396411	      0.93419736	      0.38505293	     37.82743961	     -4.59762335	     -8.42880485	     44.78294181	     44.78294181	     -1.07556685	     -4.47681378	     -1.68330183	      8.69454531	     -5.90259048	    -12.99526494	     18.05770453	     18.05770453	     15.76240031	     -7.40154045	     -0.71787882	    -13.27715520	      5.94605029	      2.88308592	     -2.42433618	    -13.33261432	      2.15400540	     29.62055450	     46.58165721	      0.00000000	      0.00000000	     17.64071706	    -20.96172833	    -12.74762346	     84.95422103	     48.43101056	      0.00000000	      0.00000000
     24.82857143	     -5.49058480	     -5.41769398	     -4.87343778	      1.01308986	      0.93361888	      0.38517670	     37.33014855	     -4.43580343	     -8.83117796	     40.59436177	     40.59436177	     -1.03271521	     -3.11493180	     -1.38026212	      7.86053937	     -5.65553687	    -13.25303374	     17.43093100	     17.43093100	     15.96518036	     -6.87768872	     -1.14233393	    -13.22820119	      5.81593707	      2.62500413	     -4.21172261	    -13.41112128	      2.18403934	     28.29304308	     46.61244836	      0.00000000	      0.00000000	     18.75686462	    -21.55972912	    -12.87048345	     86.56401607	     48.47570028	      0.00000000	      0.00000000
     24.84028571	     -5.51448704	     -5.14674527	     -4.80476406	      1.01247637	      0.93278373	      0.38530963	     36.70225275	     -4.38474898	     -9.29121385	     36.30865122	     36.30865122	     -0.98944951	     -1.77379671	     -1.04351287	      6.97661087	     -5.27869645	    -13.57624355	     16.67639571	     16.67639571	     16.07516173	     -6.19163772	     -1.82409966	    -13.10927710	      5.56013076	      2.34848832	     -6.05417061	    -13.43437840	      2.06696503	     27.13436707	     46.64366615	      0.00000000	      0.00000000	     19.77306300	    -22.18293364	    -12.82503320	     88.45087182	     48.51598680	      0.00000000	      0.00000000
     24.85200000	     -5.57029659	     -4.91302134	     -4.68638272	      1.01206330	      0.93173100	      0.38555529	     35.92178914	     -4.23525502	     -9.79330629	     31.92695295	     31.92695295	     -0.88891152	     -0.65964020	     -0.27439463	      6.16287464	     -4.93406990	    -13.70389261	     16.01285808	     16.01285808	     16.32564757	     -5.70665360	     -2.16069134	    -12.86783759	      5.35979340	      1.94430313	     -7.92415531	    -13.48750093	      1.99103144	     26.47779184	     46.65625499	      0.00000000	      0.00000000	     20.79948934	    -22.78421071	    -12.97748455	     89.66172702	     48.55477551	      0.00000000	      0.00000000
